<svg id="Grid" xmlns="http://www.w3.org/2000/svg" viewBox="0 0 40 40"><defs><style>.cls-1{fill:#3350b8;}.cls-2{fill:#ffc000;}.cls-3{fill:#009c49;}.cls-4{fill:#fff;}</style></defs><title>Artboard 1</title><path class="cls-1" d="M25,0H5A5,5,0,0,0,0,5V17.16H25Z"/><path class="cls-2" d="M35,0H25V17.15h0v4.5l4.53-4.5H40V5A5,5,0,0,0,35,0Z"/><path class="cls-3" d="M40,17.16H29.57L25,21.66v-4.5H0V35a5,5,0,0,0,5,5H35a5,5,0,0,0,5-5V17.16Z"/><rect class="cls-4" x="9.81" y="8.58" width="1.8" height="5.41"/><rect class="cls-4" x="13.42" y="4.86" width="1.8" height="9.13"/><rect class="cls-4" x="6.2" y="6.67" width="1.8" height="7.32"/><rect class="cls-4" x="17.02" y="3.17" width="1.8" height="10.82"/><path class="cls-4" d="M20.69,28H19.31a1.34,1.34,0,1,1,0-2.67h4.07V23.51H20.9V21.94H19.1v1.58a3.12,3.12,0,0,0,.21,6.23h1.38a1.34,1.34,0,1,1,0,2.67H16.63v1.79H19.1v1.58h1.8V34.2A3.12,3.12,0,0,0,20.69,28Z"/><rect class="cls-4" x="31.62" y="3.09" width="1.8" height="7.75" transform="translate(25.55 39.49) rotate(-90)"/><rect class="cls-4" x="31.62" y="6.7" width="1.8" height="7.75" transform="translate(21.94 43.09) rotate(-90)"/></svg>